<?xml version="1.0"?><svg width="640" height="480" xmlns="http://www.w3.org/2000/svg">
 <title>wave pattern</title>

 <metadata id="metadata18081">image/svg+xmlPublic Domainclker.comMohamed Ibrahimmap symbolsmap symbols</metadata>
 <g>
  <title>Layer 1</title>
  <ellipse ry="11" id="svg_3" cy="244" cx="257" fill="#0000ff"/>
  <ellipse ry="5" id="svg_4" cy="245" cx="258" fill="#0000ff"/>
  <path id="svg_6" d="m254.640442,312.600159c-6.83786,6.625854 -16.061951,9.223511 -26.292511,9.223511c-12.987244,0 -24.807861,-5.300781 -31.593292,-15.319885c-6.731842,10.23114 -18.606018,15.319885 -31.752289,15.319885c-12.986664,0 -24.701843,-5.406799 -31.486694,-15.425903c-6.732422,10.337158 -18.606049,15.425903 -31.911285,15.425903c-9.594543,0 -18.394043,-2.173645 -25.020447,-8.057465l-5.035782,-36.046021c6.891441,9.117493 17.811012,15.001312 30.056229,15.001312c13.305237,0 25.178864,-6.519836 31.911285,-16.856384c6.784851,10.018524 18.500031,16.856384 31.486694,16.856384c13.146271,0 25.020447,-6.519836 31.752289,-16.750397c6.785431,10.018555 18.606049,16.750397 31.593292,16.750397c13.252258,0 24.967438,-6.83786 31.646301,-17.174408l-5.35379,37.05307z" fill-rule="nonzero" fill="#007fff"/>
  <path id="svg_7" d="m381.640442,313.600159c-6.83786,6.625854 -16.061951,9.223511 -26.292511,9.223511c-12.987244,0 -24.807861,-5.300781 -31.593292,-15.319885c-6.731842,10.23114 -18.606018,15.319885 -31.752289,15.319885c-12.986664,0 -24.701843,-5.406799 -31.486694,-15.425903c-6.732422,10.337158 -18.606049,15.425903 -31.911285,15.425903c-9.594543,0 -18.394043,-2.173645 -25.020447,-8.057465l-5.035782,-36.046021c6.891434,9.117493 17.810989,15.001312 30.056229,15.001312c13.305237,0 25.178864,-6.519836 31.911285,-16.856384c6.784851,10.018524 18.500031,16.856384 31.486694,16.856384c13.146271,0 25.020447,-6.519836 31.752289,-16.750397c6.785431,10.018555 18.606049,16.750397 31.593292,16.750397c13.252258,0 24.967438,-6.83786 31.646301,-17.174408l-5.35379,37.05307z" fill-rule="nonzero" fill="#007fff"/>
  <path id="svg_8" d="m508.640442,312.600159c-6.83783,6.625854 -16.061951,9.223511 -26.292511,9.223511c-12.987244,0 -24.807861,-5.300781 -31.593292,-15.319885c-6.731842,10.23114 -18.606018,15.319885 -31.752289,15.319885c-12.986664,0 -24.701843,-5.406799 -31.486694,-15.425903c-6.732422,10.337158 -18.606049,15.425903 -31.911285,15.425903c-9.594543,0 -18.394043,-2.173645 -25.020447,-8.057465l-5.035767,-36.046021c6.891418,9.117493 17.810974,15.001312 30.056213,15.001312c13.305237,0 25.178864,-6.519836 31.911285,-16.856384c6.784851,10.018524 18.500031,16.856384 31.486694,16.856384c13.146271,0 25.020447,-6.519836 31.752289,-16.750397c6.785431,10.018555 18.606049,16.750397 31.593292,16.750397c13.252289,0 24.967438,-6.83786 31.646332,-17.174408l-5.353821,37.05307z" fill-rule="nonzero" fill="#007fff"/>
 </g>
</svg>